<svg xmlns="http://www.w3.org/2000/svg" viewBox="0 0 24 24" fill="currentColor">
  <path d="M12 0.297C5.373 0.297 0 5.67 0 12.297c0 5.302 3.438 9.8 8.205 11.387.6.113.82-.26.82-.577
    0-.285-.01-1.04-.015-2.04-3.338.725-4.042-1.61-4.042-1.61-.546-1.387-1.333-1.756-1.333-1.756-1.09-.745.082-.729.082-.729
    1.205.084 1.84 1.236 1.84 1.236 1.07 1.834 2.809 1.304 3.495.997.107-.775.418-1.304.762-1.604-2.665-.304-5.467-1.334-5.467-5.931
    0-1.31.469-2.381 1.236-3.221-.123-.303-.536-1.523.117-3.176 0 0 1.008-.322 3.3 1.23a11.52 11.52 0 0 1 3.003-.404c1.02.005 2.047.138
    3.003.404 2.29-1.552 3.297-1.23 3.297-1.23.655 1.653.242 2.873.119 3.176.77.84 1.235 1.911 1.235 3.221
    0 4.609-2.807 5.625-5.48 5.921.43.371.823 1.103.823 2.222
    0 1.606-.015 2.898-.015 3.293 0 .32.216.694.825.576C20.565 22.092 24 17.593 24 12.297
    24 5.67 18.627 0.297 12 0.297z" />
</svg>
